<svg id="Layer_1" data-name="Layer 1" xmlns="http://www.w3.org/2000/svg" viewBox="0 0 4209.03 4825.19">
  <defs>
    <style>
      .cls-1 {
        fill: #ca953e;
        opacity: 0.2;
      }

      .cls-2 {
        fill: #9b927c;
        opacity: 0.2;
      }
    </style>
  </defs>
  <g>
    <path class="cls-2" d="M1271.11,2096.17l-.06-.07s.02.02.06.07Z"/>
    <path class="cls-2" d="M3124.11,3199.22c-36.78-4.39-76.1-25.82-134.75-24.44-56.15,1.32-87.85,7.27-151.27.66-47.54-4.95-136.73-55.49-226.57-36.33-65.63,14-121.54,23.12-221.28,5.28-99.74-17.83-114.94-87.19-124.18-128.81-9.25-41.61-21.8-159.85-7.93-225.91,13.87-66.05,42.94-89.83,116.26-110.97s105.69,46.9,105.69,46.9c0,0-25.1,26.42-4.62,60.77s82.57,55.49,82.57,55.49c-21.14-44.26-13.87-80.59-22.46-95.78-8.59-15.19-31.71-7.27-29.72-28.4,1.98-21.14-15.85-35.67-15.85-35.67,0,0,63.09-5.52,102.39,68.7,35.67,67.38,151.93,49.54,151.93,49.54-9.25-4.62-26.42-11.23-52.18-74.64s-107.67-40.29-107.67-40.29c-29.06-33.03-145.98-39.63-145.98-39.63,0,0,7.93-18.5,54.17-33.03s132.11,2.64,132.11,2.64c56.15,30.39,148.62,54.17,148.62,54.17,0,0,6.61,27.08,80.59,58.79s125.5,6.61,125.5,6.61c-17.83-7.27-31.71-18.5-41.61-36.33-9.91-17.83-38.97-56.15-112.29-57.47s-128.15-34.35-128.15-34.35c0,0,17.83-18.5,96.44-28.4,39.02-4.92,107.01-27.74,107.01-27.74,0,0,40.95,32.37,99.08,37.65,58.13,5.28,108.99-39.63,108.99-39.63,0,0-21.8-5.28-90.5-36.33-86.96-39.3-120.88,13.87-120.88,13.87-31.05,19.82-92.48,17.83-92.48,17.83,0,0,50.86-50.2,99.08-91.82,48.22-41.61,66.06-35.67,106.35-40.95s94.46-87.19,94.46-87.19c0,0-27.08,0-104.37,1.32-77.28,1.32-61.43,66.05-61.43,66.05,0,0-37.65,25.76-70.68,62.75s-81.91,81.91-157.21,107.67-146.64.66-146.64.66c37.65-5.28,54.83-44.92,72-63.41,17.17-18.5,89.83-34.35,89.83-34.35,0,0,27.74,26.42,75.3,5.95s40.95-105.03,40.95-105.03c0,0-2.64,35.01-54.17,36.33-51.52,1.32-67.38,39.63-67.38,39.63-38.31,3.96-77.28,21.14-77.28,21.14,23.12-46.24,83.89-103.05,165.8-126.83,81.91-23.78,126.83-77.28,126.83-77.28,0,0,39.63,9.91,72.66-18.5,33.03-28.4,70.68-134.75,70.68-134.75,0,0-40.29,36.33-95.78,49.54s-62.75,75.3-62.75,75.3c-27.08,35.67-80.59,63.41-125.5,80.59s-91.82,27.74-91.82,27.74c51.52-45.58,98.42-110.31,98.42-110.31,95.12-10.57,85.21-165.8,85.21-165.8-17.17,32.37-38.31,49.54-85.21,68.04s-31.05,77.28-31.05,77.28c-52.84,103.71-87.19,122.2-87.19,122.2,17.17-56.81,25.76-155.23,25.76-155.23,32.37-15.85,40.29-33.69,48.22-70.02s-16.51-120.22-16.51-120.22c0,0-7.27,48.22-43.6,77.28s-16.51,85.87-16.51,85.87c0,0,1.32,36.33-3.96,83.23s-33.69,127.49-56.15,175.05-81.25,107.01-111.63,128.81c-30.39,21.8-90.5,19.16-90.5,19.16,3.96-21.8,21.8-54.83,21.8-54.83-67.38,37.65-90.5,100.4-90.5,100.4-21.14,9.91-52.84,32.37-83.23,52.84s-40.29,11.89-36.99-27.08,28.4-84.55,62.09-129.47c33.69-44.92,145.32-77.94,145.32-77.94,38.97,15.19,73.98,9.91,93.8.66s66.72-91.16,66.72-91.16c-11.89,9.91-23.78,6.61-43.6,7.27s-42.94,11.89-42.94,11.89c0,0,44.4-35.4,72-71.34,28.4-36.99,49.54-95.12,38.31-121.54s-18.5-97.76-18.5-97.76c0,0-4.62,62.75-42.28,89.83s-24.44,65.39-16.51,112.29c7.93,46.9-42.94,67.38-66.72,81.91s-46.24,47.56-72.66,58.13c-26.42,10.57-79.71,46.68-79.71,46.68,64.73-87.63,111.41-133.43,111.41-133.43,0,0,27.36-4.69,33.47-55.93,5.72-48-61.65-100.4-61.65-100.4,0,0,16.29,16.73-3.96,60.77-20.26,44.04,12.77,89.83,12.77,89.83-19.38,31.27-60.77,70.02-60.77,70.02-6.24-21.41-7.05-23.34,3.08-48,14.98-36.48-7.93-56.37-16.73-70.02-8.81-13.65-39.19-62.53-39.19-62.53,0,0,13.65,32.59-8.37,84.55s29.06,63.85,29.06,63.85c0,0,40.02,15.94-.88,66.94-33.91,42.28-95.56,100.84-95.56,100.84-21.14-33.03-40.95-94.24-30.83-160.29,10.13-66.05,25.98-97.32,71.34-150.61,45.36-53.28,99.96-72.22,176.59-80.59,76.62-8.37,101.28-67.38,103.93-101.28,2.64-33.91,28.18-63.85,28.18-63.85,0,0-33.91,25.1-97.32,32.59-63.41,7.49-61.21,99.08-61.21,99.08-43.16,13.21-89.83,40.95-89.83,40.95,8.81-9.69,74.86-119.78,78.83-132.99,3.96-13.21,16.73-40.07,38.31-63.41,47.78-51.68,15.74-132.55,12.99-138.28-.72,3.14-7.71,38.31-42.5,52.4s-60.77,63.85-45.36,84.11,11.01,40.51,11.01,40.51c-40.95,116.7-72.66,144-72.66,144,.88-21.58-3.08-49.32-3.08-49.32,36.11-64.73,20.7-96.44-3.96-107.01-24.66-10.57-30.39-30.39-30.39-30.39-55.05,87.19-3.96,125.06,5.72,135.63s8.81,7.05,13.65,28.62c4.84,21.58.88,39.63-6.61,51.96s-65.61,58.13-65.61,58.13c-31.27-120.22-20.7-218.86-20.7-218.86,5.72-34.79,33.03-98.64,57.25-103.49,24.22-4.84,60.11-20.26,78.61-62.09,22.2-50.2-17.39-113.17-17.39-113.17-.88,3.08.44,8.59-13.65,29.28s-41.83,30.17-54.17,50.86c-8.48,14.24-11.45,59.45-11.45,59.45-45.8,54.17-56.37,112.29-56.37,112.29,3.52-121.98-1.32-166.46-1.32-166.46,0,0,29.95-17.61,32.15-66.05,2.2-48.44-50.2-94.68-50.2-94.68-4.13,12.61-5.28,22.46-30.39,56.37-25.1,33.91-12.77,63.85-3.96,73.1s22.46,34.79,22.46,34.79c11.01,46.68,5.72,130.79,5.72,130.79-12.33-27.74-56.81-75.3-56.81-75.3-.88-51.08-29.31-60.18-52.84-83.23-21.58-21.14-34.79-46.24-34.79-46.24-30.83,147.52,78.39,169.1,78.39,169.1,0,0,45.36,46.68,66.05,149.72,20.69,103.04-21.58,194.64-21.58,194.64,0,0-7.05-9.69-40.51-61.21-33.47-51.52-12.33-90.28-12.33-90.28,28.62-13.21,53.72-66.94,25.98-95.56-18.11-18.68-36.55-51.96-36.55-51.96-3.08,29.06-22.94,42.12-33.03,55.93-38.01,52.02,14.09,88.51,14.09,88.51-3.08,17.17-3.52,44.92,14.09,69.58,17.61,24.66,10.13,36.99,10.13,36.99-49.32-42.72-99.52-97.32-110.97-121.1-5.9-12.25-11.99-28.01,13.21-79.71,25.54-52.4-83.23-121.54-83.23-121.54,0,0,21.14,18.06-.44,65.17-21.58,47.12,25.98,92.92,25.98,92.92,12.33,56.81,71.78,117.58,71.78,117.58-24.22-13.21-113.17-48.44-113.17-48.44,0,0-29.06-74.86-78.39-78.39-49.32-3.52-70.9-28.18-70.9-28.18,33.03,46.24,10.13,36.99,42.28,100.84s84.24,29.68,114.5,37.87c100.84,27.3,214.02,92.48,244.84,210.5,30.83,118.02-12.77,194.2-12.77,194.2-83.23-44.48-81.1-91.42-77.94-108.33,4.84-25.98,33.59-37.44,30.83-73.98-3.96-52.4-51.52-98.64-51.52-98.64.88,6.61,4.84,34.79-10.13,53.72-14.97,18.94-22.02,59.45-20.26,67.82s13.65,8.37,14.53,34.79,16.73,58.13,16.73,58.13c-44.48-26.42-90.28-83.23-90.28-83.23,17.17-26.86,14.09-66.06,14.09-66.06,31.27-34.79,32.15-71.34,17.17-95.12-14.97-23.78-30.83-66.06-30.83-66.06-1.32,8.81-2.64,14.97-31.71,55.93-29.06,40.95-11.01,72.66,13.21,103.05,26.8,33.63-4.4,55.49-4.4,55.49-64.51-48-80.15-74.86-87.19-89.83-7.1-15.08-6.61-32.59-6.61-32.59,0-56.37-28.62-75.08-53.72-88.51s-69.36-61.21-69.36-61.21c6.61,13.43,9.47,36.55,10.79,64.51,1.32,27.96,10.13,60.55,29.94,88.95,19.82,28.4,57.25,30.17,57.25,30.17,65.17,81.69,155.89,159.85,155.89,159.85,0,0-29.95-10.02-43.16-14.86-13.64-5-35.67-13.32-59.01-33.14-14.99-12.73-27.74-47.56-67.82-45.36-25.19,1.38-48.88-4.4-48.88-4.4,36.11,126.83,111.96,98.53,128.59,96.88,38.26-3.8,69.47,18,128.15,42.28,119.4,49.4,97.32,172.62,97.32,172.62,0,0-79.27-14.97-119.78-75.74s-75.74-64.73-75.74-64.73c40.95,35.67,44.48,64.29,44.48,64.29-38.31-8.81-90.72-25.98-154.13-69.14s-69.58-129.91-84.99-159.85c-15.41-29.95-39.19-34.35-38.31-99.52.88-65.17-19.82-95.56-19.82-95.56,0,0,9.69-6.61,13.21-46.24s-77.06-120.66-77.06-120.66c6.61,18.5,10.13,32.59-.88,80.15-12.51,54.04,44.92,100.4,44.92,100.4,30.83,56.81,7.05,134.31,7.05,134.31-33.47-19.38-61.87-74.42-61.87-74.42,3.52-12.33,7.71-19.6,2.2-49.76-6.45-35.34-116.7-101.95-112.95-97.1,3.74,4.84,10.79,13.87,14.75,76.18,3.96,62.31,67.6,82.79,67.6,82.79,15.41,24.66,57.25,66.28,57.25,66.28-9.03-1.54-12.11-.88-74.42-20.48s-94.68-60.77-94.68-60.77c-4.18-54.17-54.61-90.72-89.83-94.46-34.13-3.63-55.45-26.89-56.74-28.33.51.59,4.29,5.24,6.54,17.32,2.42,12.99-4.62,33.69,27.96,84.33,32.59,50.64,105.91,61.43,105.91,61.43,22.02,14.31,66.72,45.58,159.19,61.65,92.48,16.07,108.99,105.69,108.99,105.69-14.75,10.57-54.83,7.93-75.08-3.3-20.26-11.23-25.1-52.4-80.37-48.22s-81.69-14.97-81.69-14.97c32.15,26.42,33.92,58.08,49.54,74.64,47.78,50.64,58.35,16.73,126.17,31.49,69.34,15.08,110.97,90.28,110.97,90.28,0,0-138.28,36.99-227.89-41.83s-108.77-128.15-108.77-128.15c-16.29-59.89-73.32-73.98-116.7-71.78s-59.01-26.86-59.01-26.86c8.37,26.86,21.36,50.42,45.8,85.43,24.44,35.01,99.08,40.29,99.08,40.29,16.28,11.6,43.82,38.31,65.83,65.39,27.35,33.65,49.32,38.09,59.01,57.47,0,0-73.32,6.17-91.6-28.4-18.28-34.57-72.23-22.14-97.1-6.83-63.63,39.19-102.39,39.19-102.39,39.19,104.15,67.38,188.63,30.07,201.69,20.7,18.72-13.43,51.08-11.67,102.83,6.39,51.74,18.06,159.63,30.28,159.63,30.28-67.71,36.99-87.85,60.77-129.47,51.85-115.65-24.78-152.92,87.19-152.92,87.19,126.83,15.19,137.06-29.06,161.17-47.56,10.64-8.16,76.09-64.44,201.47-78.61,116.92-13.21,166.46,36.33,166.46,36.33-27.41-4.29-55.49,9.91-70.68,18.5-15.19,8.59-54.17,28.4-101.72,24.77-47.56-3.63-72.33,11.89-94.79,31.38-22.46,19.49-22.13,83.56-22.13,83.56,2.97-3.3,16.51-8.26,27.08-10.24s64.4-3.3,77.28-39.63c12.88-36.33,37.98-40.62,43.93-43.6,16.13-8.06,79.27-21.47,79.27-21.47-38.97,30.39-48.88,59.78-56.48,83.23s12.88,94.13,12.88,94.13c11.89-34.35,34.35-46.24,49.21-73.65s-1.65-47.23-4.29-52.84-12.22-50.53,49.87-63.08,99.08,20.48,135.74,51.52c52.77,44.69,60.77,125.5,50.2,228.55s-52.84,138.72-100.4,180.99c-47.56,42.28-150.61,38.31-195.52,26.42-44.92-11.89-111.63-23.75-180.99-3.08-66.5,19.82-159.85,7.05-192.88,4.4-33.03-2.64-95.12-6.61-169.1,21.14-73.98,27.74-158.53,14.53-158.53,14.53,62.97,32.15,135.32,16.78,169.54,7.49,35.67-9.69,121.43-12.92,163.82-8.37,40.95,4.4,100.84,17.61,100.84,17.61-5.28,9.69-36.55,20.7-78.39,29.94-41.83,9.25-64.29,30.39-94.24,48.88-29.95,18.5-91.16,21.58-91.16,21.58,27.74,4.4,78.83,16.73,121.54-12.33,42.72-29.06,85.43-29.06,133.87-39.19s69.58-51.08,128.59-63.41c59.01-12.33,131.23,7.93,131.23,7.93-40.51,7.05-78.39,20.7-120.22,60.33-42.45,40.21-93.04,56.2-115.38,63.41-42.28,13.65-59.2,22.23-92.48,49.76-48.44,40.07-123.3,41.83-123.3,41.83,19.82,3.08,48,6.17,73.98,2.2,25.98-3.96,66.5-29.5,85.43-41.39,18.94-11.89,42.2-24.99,76.62-32.59,29.94-6.61,72.66-30.83,72.66-30.83-.88,15.41-16.29,71.78-60.77,99.96s-72.22,74.86-72.22,74.86c31.27-25.54,59.45-44.04,97.32-61.65s55.05-70.46,67.82-100.84c12.97-30.86,48-52.84,62.53-59.89,16.7-8.1,32.16-14.09,83.67-25.1,51.52-11.01,85.43-6.17,85.43-6.17-25.54,9.25-47.12,25.54-55.93,52.4-6.81,20.78,2.86,55.49,2.86,55.49-27.57,23.47-54.17,23.78-87.52,42.61-32.56,18.38-32.7,36.99-53.5,91.16-20.81,54.17-80.59,82.24-80.59,82.24,86.2-16.18,104.37-69.03,111.63-88.84s10.75-45.03,52.51-54.83c69.03-16.18,105.25-51.63,105.25-51.63-5.72,9.69-19.38,30.39-23.78,48.88-4.56,19.16-4.4,54.61-11.45,60.33-7.05,5.72-33.91,23.78-46.24,40.51s-18.5,51.96-18.5,51.96c-7.58,26.32-37.43,44.92-37.43,44.92,0,0,28.62-8.81,38.31-20.7,9.69-11.89,11.45-32.15,25.1-51.08,16.71-23.18,44.04-36.55,44.04-36.55,1.21.66,12.55-5.72,4.62,28.62-7.93,34.35,6.61,83.89,6.61,83.89,33.69-35.01,28.4-85.87,23.12-117.58s-13.21-103.05,60.11-156.55,151.93-133.43,151.93-133.43c0,46.9,36.33,66.06,32.37,102.39-4.32,39.65-84.11,82.21-110.31,119.56-31.05,44.26-20.48,87.85-8.59,136.73,14.2,58.36-67.38,112.29-67.38,112.29,98.42-42.94,91.16-85.87,88.51-117.58-1.95-23.38-29.72-72.66,14.53-120.88,44.26-48.22,108.99-75.96,108.99-75.96,0,0,0,3.96-5.28,28.4-5.06,23.4-27.57,48.33-32.37,84.55-7.27,54.83,7.93,68.04,16.51,109.65,7.63,36.96-17.83,90.5-17.83,90.5,13.21-17.83,36.33-66.06,36.33-66.06,7.27,12.55,21.8,37.65-3.96,78.61-25.76,40.95-2.64,118.24-2.64,118.24-1.32-39.63.01-82.32,23.78-120.22,24.44-38.97,17.83-89.83,6.61-108.99-11.23-19.16-25.76-88.51-4.62-117.58,21.14-29.06,29.06-76.62,29.06-76.62,0,0,70.68,58.13,83.89,116.92,10.2,45.41-10.33,78.63,7.93,117.58,19.82,42.28,89.17,56.81,89.17,56.81,0,0-51.58-30.71-62.75-56.15-19.16-43.6,6.4-64.52-5.95-132.11-13.87-75.96-109.65-154.57-109.65-154.57,0,0-9.91-31.05,5.95-46.24,15.85-15.19,14.53-69.36,14.53-69.36,0,0,19.82,54.17,81.91,93.8,62.09,39.63,110.31,87.85,118.9,128.15,8.59,40.29-14.53,68.04,13.21,118.9,11.96,21.92,21.8,55.49,21.8,55.49,23.12-63.41-1.98-118.9-1.98-118.9,0,0,7.93,8.59,27.08,17.17,19.16,8.59,46.24,25.76,58.13,54.83,11.89,29.06,52.18,31.71,52.18,31.71-19.82-9.91-33.69-37.65-40.29-53.5-6.61-15.85-25.1-38.97-52.84-53.5-12.63-6.62-33.69-14.53-41.61-42.27-7.93-27.74-40.95-94.46-40.95-94.46,60.77,29.73,112.29,105.03,112.29,105.03-5.28-29.73-34.35-64.07-34.35-64.07,0,0,104.37,15.19,111.63,55.49s4.62,56.81,40.95,81.91c36.33,25.1,93.14,15.85,93.14,15.85-23.12-2.64-41.51-11.55-57.47-17.83-21.8-8.59-47.56-18.5-48.22-66.72s-38.97-70.68-60.11-79.27c-21.14-8.59-65.39-15.85-65.39-36.33,0-65.41-20.48-78.61-33.03-91.16-12.55-12.55-44.92-44.26-44.92-44.26,81.91,1.32,120.53,18.07,178.35,56.15,54.17,35.67,71.34,56.81,99.08,128.81,35.69,92.62,137.39,79.93,137.39,79.93-106.03-32.58-113.24-123.2-113.6-129.15,1.53.58,8.68,2.24,36.97,6.95,43.6,7.27,65.39,14.53,122.86,47.56,57.47,33.03,95.12,19.16,95.12,19.16-36.99-5.28-67.38-25.76-85.21-38.97s-65.46-37.43-97.76-47.56c-33.69-10.57-69.36-21.14-69.36-21.14-54.83-84.55-181.65-117.58-181.65-117.58,64.07-29.06,114.94-11.89,155.89,0s64.73,46.9,93.8,52.18c29.06,5.28,45.58-3.96,123.52,31.05,77.95,35.01,118.24,14.53,118.24,14.53-50.2-.66-98.42-27.08-119.56-39.63-21.14-12.55-50.86-29.06-79.27-34.35-35.12-6.53-50.2-20.48-50.2-20.48,0,0,48.35,7.35,89.17,7.93,46.9.66,52.18-9.91,99.74-11.89s46.24,7.27,118.9,15.85c72.66,8.59,118.9-23.12,118.9-23.12,0,0-62.09,3.96-106.35-1.32h.05ZM2039.82,3227.62c-17.14,21.01-50.86,72.66-100.07,84.22s-81.25,33.36-81.25,33.36c0,0-15.63-40.16,7.6-63.08,25.1-24.77,39.3-23.12,56.15-32.37,20.07-11.02,42.2-40.3,59.78-51.85,57.8-37.98,82.24-33.03,101.06-55.82,0,0-2.31,35.34-43.27,85.54h0ZM2173.25,3309.53s-44.59-50.53-33.69-94.79c10.9-44.26,11.23-60.11,8.59-77.28,0,0,46.24,34.02,45.58,81.25s-20.48,90.83-20.48,90.83h0ZM2480.95,3307.77c9.47,24.44,5.06,42.06,5.06,42.06,0,0-43.6-26.75-122.2-47.89-78.61-21.14-126.83-108.99-126.83-159.52,0,0,23.22,38.3,73.54,50.42,66.72,16.07,57.4,36.82,96,55.49,33.69,16.29,59.96,22.12,74.42,59.45h.01Z"/>
  </g>
  <path class="cls-1" d="M1876.86,1918.45c14.22-31.04-2.29-91.32-1.63-90.76l30.99,17.03c1.07.68,23.92,15.29,46.87,36.46,2.57,2.37,5.14,4.82,7.69,7.35,14.57,14.47,25.45,28.62,32.39,42.12l-32.26-65.04c-146.33-315.63-44.66-527.47,254.92-666.75-19.68-2.47-39.73-3.74-60.07-3.74-262.66,0-475.6,211.75-475.6,472.95,0,38.66,4.67,76.23,13.47,112.2,2.25,8.89,4.75,17.72,7.54,26.48,3.71,11.63,7.62,23.4,12.09,34.98,2.98,7.5,6.14,14.91,9.49,22.22,13.56,29.6,48.26,82.02,48.26,82.02,0,0,33.48.37,43.85-.06,14.69-.62,54.73,1.56,54.73,1.56.61-10,3.03-19.73,7.28-29.02h0Z"/>
  <path class="cls-1" d="M2136.87,740.08c-3.49,28.22-39.68,83.21-17.89,148.6,15.77,47.3,18.88,67.4,13.92,91.18-12.5,60.02-43.46,56.15-45.69,55.82-2.59-.39-8.44.24-27.82-31.03-19.38-31.27-40.95-94.24-65.17-151.49-24.22-57.25-57.25-112.29-60.33-127.27-3.08-14.97-3.52-33.91-3.52-33.91,0,0-11.89,34.35,4.4,101.28,16.29,66.94,54.61,193.32,54.61,225.03s-2.64,41.39-2.64,41.39c0,0-79.71-26.42-104.81-62.97-25.1-36.55-32.59-76.18-36.99-110.97s-15.85-68.7-67.38-104.81c-51.52-36.11-80.59-53.72-91.6-94.24,0,0-8.62,76.37,43.6,128.59,37.87,37.87,48.44,66.5,43.6,84.11-4.79,17.41-22.76,91.53,10.57,152.81,13.65,25.1,36.99,84.99,39.19,94.68,0,0-96.64-24.48-133.87-35.23-62.53-18.06-104.81-88.51-125.51-108.33s-91.6-70.9-166.9-90.72c0,0,102.61,79.71,127.71,159.41,25.1,79.71,70.9,106.57,88.51,119.34s59.01,49.32,62.97,88.07c0,0-106.57-7.49-199.05-53.72,0,0,24.66,34.35,75.74,61.21,34.87,18.34,61.21,48.88,81.03,78.39,0,0-102.97-3.51-130.79-2.64-28.18.88-72.66-3.08-101.73-39.19-29.06-36.11-57.69-77.06-90.27-86.75-32.59-9.69-82.35-6.61-82.35-6.61,0,0,80.15,33.47,106.57,96.44,26.42,62.97,33.47,83.23,108.77,114.94s115.82,46.24,129.03,85.87c0,0-5.72,8.81-59.45,7.49-53.73-1.32-118.9-5.72-158.09-18.94,0,0,42.19,35.84,102.61,47.56,29.5,5.72,41.83,14.53,48.44,19.38,6.61,4.84,22.9,13.65,32.59,15.85,0,0-36.11,14.97-62.09,13.65s-46.68,3.08-67.82,11.89c-21.14,8.81-58.57,1.76-84.99-13.21s-70.46-22.46-118.46-15.41-78.39,25.98-108.77,24.22c-30.39-1.76-40.95-3.96-40.95-3.96,0,0,37.43,25.54,89.39,26.86s110.97-.88,149.28,28.18c36.84,27.95,94.24,55.05,140.04,48.44,39.23-5.66,91.16-8.81,117.58,2.64,0,0-29.06,61.65-86.31,77.5s-79.27,18.5-97.76,18.5c0,0,12.77,12.33,33.03,15.41,20.26,3.08,89.39-9.69,123.3-5.72,33.91,3.96,43.16,9.69,43.16,9.69,0,0-63.85,34.79-92.48,57.25-28.62,22.46-85.87,15.41-104.81,13.21-18.94-2.2-54.61,7.05-84.99,31.71s-58.57,44.04-103.05,35.23c0,0,32.15,31.71,109.65,9.25s93.36-9.69,128.15-9.69,95.56-25.1,142.68-24.66c14.41.13,27.99.89,40.95.81,15.18-.09,63.64-1.8,85.63-2.6-49.45-81.81-77.89-177.59-77.89-279.98,0-300.11,244.31-543.5,546.04-544.43,301.73.93,546.04,244.32,546.04,544.43,0,102.39-28.44,198.17-77.89,279.98,21.99.8,70.45,2.51,85.63,2.6,12.97.08,26.54-.67,40.95-.81,47.12-.44,107.89,24.66,142.68,24.66s50.64-12.77,128.15,9.69c77.5,22.46,109.65-9.25,109.65-9.25-44.48,8.81-72.66-10.57-103.05-35.23s-66.06-33.91-84.99-31.71c-18.94,2.2-76.18,9.25-104.81-13.21-28.62-22.46-92.48-57.25-92.48-57.25,0,0,9.25-5.72,43.16-9.69,33.91-3.96,103.05,8.81,123.3,5.72,20.26-3.08,33.03-15.41,33.03-15.41-18.5,0-40.51-2.64-97.76-18.5-57.25-15.85-86.31-77.5-86.31-77.5,26.42-11.45,78.35-8.3,117.58-2.64,45.8,6.61,103.2-20.49,140.04-48.44,38.31-29.06,97.32-26.86,149.28-28.18,51.96-1.32,89.39-26.86,89.39-26.86,0,0-10.57,2.2-40.95,3.96-30.39,1.76-60.77-17.17-108.77-24.22s-92.04.44-118.46,15.41c-26.42,14.97-63.85,22.02-84.99,13.21s-41.83-13.21-67.82-11.89c-25.98,1.32-62.09-13.65-62.09-13.65,9.69-2.2,25.98-11.01,32.59-15.85s18.94-13.65,48.44-19.38c60.41-11.72,102.61-47.56,102.61-47.56-39.19,13.21-104.37,17.61-158.09,18.94-53.72,1.32-59.45-7.49-59.45-7.49,13.21-39.63,53.72-54.17,129.03-85.87,75.3-31.71,82.35-51.96,108.77-114.94,26.42-62.97,106.57-96.44,106.57-96.44,0,0-49.76-3.08-82.35,6.61s-61.21,50.64-90.27,86.75-73.54,40.07-101.73,39.19c-27.82-.87-130.79,2.64-130.79,2.64,19.82-29.5,46.16-60.05,81.03-78.39,51.08-26.86,75.74-61.21,75.74-61.21-92.48,46.24-199.05,53.72-199.05,53.72,3.96-38.75,45.36-75.3,62.97-88.07,17.61-12.77,63.41-39.63,88.51-119.34,25.1-79.71,127.71-159.41,127.71-159.41-75.3,19.82-146.2,70.9-166.9,90.72s-62.97,90.28-125.51,108.33c-37.23,10.75-133.87,35.23-133.87,35.23,2.2-9.69,25.54-69.58,39.19-94.68,33.33-61.28,15.36-135.39,10.57-152.81-4.84-17.61,5.72-46.24,43.6-84.11,52.22-52.22,43.6-128.59,43.6-128.59-11.01,40.51-40.07,58.13-91.6,94.24-51.52,36.11-62.97,70.02-67.38,104.81-4.4,34.79-11.89,74.42-36.99,110.97s-104.81,62.97-104.81,62.97c0,0-2.64-9.69-2.64-41.39s38.31-158.09,54.61-225.03c16.29-66.94,4.4-101.28,4.4-101.28,0,0-.44,18.94-3.52,33.91s-36.11,70.02-60.33,127.27-45.8,120.22-65.17,151.49c-19.38,31.27-25.54,34.35-27.74,29.06-2.2-5.28-.44,9.69,3.08-51.52s-27.3-88.95-42.28-136.51,4.4-126.39,4.4-126.39c8.37-76.62-32.59-170.42-32.59-170.42,0,0,4.46,73.41-2.88,105.34-6.74,29.31-17.94,64.94-20.53,85.87h.02Z"/>
</svg>

