<svg id="Layer_1" data-name="Layer 1" xmlns="http://www.w3.org/2000/svg" viewBox="288.12 4158.12 3632.8 371.13">
  <defs>
    <style>
      .cls-1 {
        fill: #ca953e;
      }
    </style>
  </defs>
  <g>
    <path class="cls-1" d="M289.01,4169.72l-.89-4.46h88.77l-.89,4.46c-5.8.89-22.3,1.78-22.3,29v289.95c0,27.21,16.5,28.1,22.3,29l.89,4.46h-88.77l.89-4.46c5.8-.89,22.3-1.78,22.3-29v-289.95c0-27.21-16.5-28.1-22.3-29Z"></path>
    <path class="cls-1" d="M413.46,4169.72l-.89-4.46h88.77l-.89,4.46c-5.8.89-22.3,1.78-22.3,29v318.95h147.21c56.65,0,72.26-46.39,77.17-60.67h4.46l-16.06,65.13h-278.35l.89-4.46c5.8-.89,22.3-1.78,22.3-29v-289.95c0-27.21-16.5-28.1-22.3-29h-.01ZM544.16,4169.72l-.89-4.46h88.77l-.89,4.46c-5.8.89-22.3,1.78-22.3,29v142.75c0,49.52,25.43,76.28,65.57,76.28s65.57-31.23,65.57-80.74v-138.28c0-27.21-16.5-28.1-22.3-29l-.89-4.46h50.85l-.89,4.46c-5.8.89-22.3,1.78-22.3,29v138.28c0,60.22-32.12,87.88-83.42,87.88-57.99,0-94.57-33.9-94.57-87.88v-138.28c0-27.21-16.5-28.1-22.3-29h-.01Z"></path>
    <path class="cls-1" d="M867.11,4165.26l95.46,286.38,85.2-286.38h65.57l-.89,4.46c-5.8.89-22.3,1.78-22.3,29v289.95c0,27.21,16.51,28.1,22.3,29l.89,4.46h-88.77l.89-4.46c5.8-.89,22.3-1.78,22.3-29v-306.9l-102.15,340.36h-4.91l-107.51-325.64v292.18c0,27.21,16.5,28.1,22.3,29l.89,4.46h-50.85l.89-4.46c5.8-.89,22.3-1.78,22.3-29v-302.44c-9.37-15.17-22.3-15.61-26.76-16.51l-.89-4.46h66.04Z"></path>
    <path class="cls-1" d="M1149.92,4169.72l-.89-4.46h88.77l-.89,4.46c-5.8.89-22.3,1.78-22.3,29v289.95c0,27.21,16.5,28.1,22.3,29l.89,4.46h-88.77l.89-4.46c5.8-.89,22.3-1.78,22.3-29v-289.95c0-27.21-16.5-28.1-22.3-29Z"></path>
    <path class="cls-1" d="M1274.37,4169.72l-.89-4.46h58.88l160.14,273v-239.55c0-27.21-16.5-28.1-22.3-29l-.89-4.46h50.85l-.89,4.46c-5.8.89-22.3,1.78-22.3,29v323.41h-4.46l-191.37-326.09v292.63c0,27.21,16.5,28.1,22.3,29l.89,4.46h-50.85l.89-4.46c5.8-.89,22.3-1.78,22.3-29v-289.95c0-27.21-16.5-28.1-22.3-29h0Z"></path>
    <path class="cls-1" d="M1799.85,4517.66l.89,4.46h-92.78l1.34-4.46c7.58-.89,27.21-1.34,18.74-27.21l-18.29-58.44h-124.01l-18.29,58.44c-8.48,25.87,11.15,26.32,18.74,27.21l1.34,4.46h-53.98l.89-4.46c4.46-.89,19.63-1.34,28.1-27.66l102.15-324.75h4.91l102.15,324.75c8.48,26.32,23.64,26.76,28.1,27.66h0ZM1708.4,4427.55l-60.67-192.26-60.67,192.26h121.34Z"></path>
    A     
    <path class="cls-1" d="M1815.01,4169.72l-.89-4.46h95.46c74.5.45,129.36,30.33,129.36,90.11,0,49.07-37.02,78.06-91.45,87.43,58.44,11.15,64.24,89.22,80.29,147.65,8.92,25.87,24.53,26.32,29,27.21l.89,4.46h-65.57c-24.09-57.1-20.97-176.2-82.52-176.2h-29.89v142.75c0,27.21,16.5,28.1,22.3,29l.89,4.46h-88.77l.89-4.46c5.8-.89,22.3-1.78,22.3-29v-289.95c0-27.21-16.5-28.1-22.3-29h.01ZM1989.88,4255.37c0-58.88-26.76-85.65-82.52-85.65h-27.66v171.74h27.66c55.76,0,82.52-26.76,82.52-86.09h0Z"></path>
    <path class="cls-1" d="M2170.08,4169.72l-.89-4.46h186.91l13.83,56.65h-4.46c-4.01-13.38-16.06-52.19-69.14-52.19h-61.56v318.95c0,27.21,16.5,28.1,22.3,29l.89,4.46h-88.77l.89-4.46c5.8-.89,22.3-1.78,22.3-29v-289.95c0-27.21-16.5-28.1-22.3-29ZM2388.66,4169.72l-.89-4.46h186.91l13.83,56.65h-4.46c-4.01-13.38-16.06-52.19-69.14-52.19h-61.56v171.74h49.07c34.35,0,32.56-25.87,33.46-31.67h4.46v67.8h-4.46c-.89-5.8.89-31.67-33.46-31.67h-49.07v171.74h61.11c56.65,0,72.26-46.39,77.17-60.67h4.46l-16.06,65.13h-192.26l.89-4.46c5.8-.89,22.3-1.78,22.3-29v-142.75h-99.03c-34.35,0-32.56,25.87-33.46,31.67h-4.46v-67.8h4.46c.89,5.8-.89,31.67,33.46,31.67h99.03v-142.75c0-27.21-16.51-28.1-22.3-29v.02Z"></path>
    <path class="cls-1" d="M2616.6,4245.11c0-50.85,39.7-86.99,99.03-86.99,32.56,0,70.48,14.27,88.32,34.35l5.35,69.14h-4.46c-11.6-57.99-49.96-99.03-89.22-99.03s-67.8,23.2-67.8,55.76c0,88.32,176.2,98.14,176.2,205.64,0,62-43.27,105.27-104.38,105.27-41.49,0-82.53-14.27-100.37-34.35l-5.35-69.14h4.46c12.49,55.31,57.1,99.03,101.26,99.03s73.16-30.78,73.16-74.05c0-94.12-176.2-102.6-176.2-205.64h0Z"></path>
    <path class="cls-1" d="M3084.09,4221.91h-4.46c-4.01-13.38-16.06-52.19-69.14-52.19h-28.55v318.95c0,27.21,16.51,28.1,22.3,29l.89,4.46h-88.77l.89-4.46c5.8-.89,22.3-1.78,22.3-29v-318.95h-28.55c-53.08,0-65.13,38.81-69.14,52.19h-4.46l13.83-56.65h219.03l13.83,56.65h0Z"></path>
    <path class="cls-1" d="M3102.82,4169.72l-.89-4.46h88.77l-.89,4.46c-5.8.89-22.3,1.78-22.3,29v289.95c0,27.21,16.51,28.1,22.3,29l.89,4.46h-88.77l.89-4.46c5.8-.89,22.3-1.78,22.3-29v-289.95c0-27.21-16.5-28.1-22.3-29Z"></path>
    <path class="cls-1" d="M3213.89,4169.72l-.89-4.46h92.78l-1.34,4.46c-7.58.89-27.21,1.34-18.73,27.66l80.29,254.71,80.29-254.71c8.48-26.32-11.15-26.76-18.74-27.66l-1.34-4.46h53.98l-.89,4.46c-4.46.89-19.63,1.34-28.1,27.66l-102.15,324.75h-4.91l-102.15-324.75c-8.48-26.32-23.64-26.76-28.1-27.66h0Z"></path>
    <path class="cls-1" d="M3701.89,4517.66l.89,4.46h-92.78l1.34-4.46c7.58-.89,27.21-1.34,18.73-27.21l-18.29-58.44h-124.01l-18.29,58.44c-8.48,25.87,11.15,26.32,18.73,27.21l1.34,4.46h-53.98l.89-4.46c4.46-.89,19.63-1.34,28.1-27.66l102.15-324.75h4.91l102.15,324.75c8.48,26.32,23.64,26.76,28.1,27.66h.02ZM3610.45,4427.55l-60.67-192.26-60.67,192.26h121.34Z"></path>
    <path class="cls-1" d="M3717.06,4169.72l-.89-4.46h88.77l-.89,4.46c-5.8.89-22.3,1.78-22.3,29v318.95h57.54c56.65,0,72.26-46.39,77.17-60.67h4.46l-16.06,65.13h-188.69l.89-4.46c5.8-.89,22.3-1.78,22.3-29v-289.95c0-27.21-16.5-28.1-22.3-29Z"></path>
  </g>
</svg>
